<mxfile host="app.diagrams.net" modified="2023-04-14T15:36:04.220Z" agent="Mozilla/5.0 (Macintosh; Intel Mac OS X 10_15_7) AppleWebKit/537.36 (KHTML, like Gecko) Chrome/112.0.0.0 Safari/537.36" etag="rgJOjas_lnjwAnfNX3ZL" version="21.1.8" type="device">
  <diagram name="Page-1" id="kIeO5uGP7LgFwGZEmoK8">
    <mxGraphModel dx="691" dy="396" grid="1" gridSize="10" guides="1" tooltips="1" connect="1" arrows="1" fold="1" page="1" pageScale="1" pageWidth="827" pageHeight="1169" math="0" shadow="0">
      <root>
        <mxCell id="0" />
        <mxCell id="1" parent="0" />
        <mxCell id="IrBCVyRPKa5Xm-K4wgsj-1" value="" style="rounded=1;whiteSpace=wrap;html=1;" vertex="1" parent="1">
          <mxGeometry x="180" y="80" width="100" height="40" as="geometry" />
        </mxCell>
        <mxCell id="IrBCVyRPKa5Xm-K4wgsj-3" value="" style="endArrow=none;html=1;rounded=0;entryX=0.203;entryY=-0.017;entryDx=0;entryDy=0;entryPerimeter=0;" edge="1" parent="1" target="IrBCVyRPKa5Xm-K4wgsj-1">
          <mxGeometry width="50" height="50" relative="1" as="geometry">
            <mxPoint x="200" y="120" as="sourcePoint" />
            <mxPoint x="430" y="120" as="targetPoint" />
          </mxGeometry>
        </mxCell>
        <mxCell id="IrBCVyRPKa5Xm-K4wgsj-4" value="" style="endArrow=classic;html=1;rounded=0;exitX=0;exitY=0.5;exitDx=0;exitDy=0;" edge="1" parent="1" source="IrBCVyRPKa5Xm-K4wgsj-1">
          <mxGeometry width="50" height="50" relative="1" as="geometry">
            <mxPoint x="380" y="170" as="sourcePoint" />
            <mxPoint x="160" y="100" as="targetPoint" />
          </mxGeometry>
        </mxCell>
        <mxCell id="IrBCVyRPKa5Xm-K4wgsj-6" value="&lt;font style=&quot;font-size: 18px;&quot;&gt;cmd&lt;/font&gt;" style="text;html=1;strokeColor=none;fillColor=none;align=center;verticalAlign=middle;whiteSpace=wrap;rounded=0;" vertex="1" parent="1">
          <mxGeometry x="210" y="85" width="60" height="30" as="geometry" />
        </mxCell>
        <mxCell id="IrBCVyRPKa5Xm-K4wgsj-8" value="" style="rounded=1;whiteSpace=wrap;html=1;" vertex="1" parent="1">
          <mxGeometry x="320" y="80" width="120" height="40" as="geometry" />
        </mxCell>
        <mxCell id="IrBCVyRPKa5Xm-K4wgsj-9" value="" style="endArrow=none;html=1;rounded=0;entryX=0.331;entryY=0.008;entryDx=0;entryDy=0;entryPerimeter=0;" edge="1" parent="1" target="IrBCVyRPKa5Xm-K4wgsj-8">
          <mxGeometry width="50" height="50" relative="1" as="geometry">
            <mxPoint x="360" y="120" as="sourcePoint" />
            <mxPoint x="590" y="120" as="targetPoint" />
          </mxGeometry>
        </mxCell>
        <mxCell id="IrBCVyRPKa5Xm-K4wgsj-10" value="" style="endArrow=classic;html=1;rounded=0;exitX=0;exitY=0.5;exitDx=0;exitDy=0;" edge="1" parent="1" source="IrBCVyRPKa5Xm-K4wgsj-8">
          <mxGeometry width="50" height="50" relative="1" as="geometry">
            <mxPoint x="540" y="170" as="sourcePoint" />
            <mxPoint x="280" y="100" as="targetPoint" />
          </mxGeometry>
        </mxCell>
        <mxCell id="IrBCVyRPKa5Xm-K4wgsj-11" value="&lt;font style=&quot;font-size: 20px;&quot;&gt;QC&lt;/font&gt;" style="text;strokeColor=none;fillColor=none;html=1;fontSize=24;fontStyle=1;verticalAlign=middle;align=center;" vertex="1" parent="1">
          <mxGeometry x="320" y="80" width="40" height="40" as="geometry" />
        </mxCell>
        <mxCell id="IrBCVyRPKa5Xm-K4wgsj-12" value="&lt;font style=&quot;font-size: 18px;&quot;&gt;cmd&lt;/font&gt;" style="text;html=1;strokeColor=none;fillColor=none;align=center;verticalAlign=middle;whiteSpace=wrap;rounded=0;" vertex="1" parent="1">
          <mxGeometry x="370" y="85" width="60" height="30" as="geometry" />
        </mxCell>
        <mxCell id="IrBCVyRPKa5Xm-K4wgsj-13" value="" style="rounded=1;whiteSpace=wrap;html=1;" vertex="1" parent="1">
          <mxGeometry x="480" y="80" width="120" height="40" as="geometry" />
        </mxCell>
        <mxCell id="IrBCVyRPKa5Xm-K4wgsj-14" value="" style="endArrow=none;html=1;rounded=0;entryX=0.331;entryY=0.008;entryDx=0;entryDy=0;entryPerimeter=0;" edge="1" parent="1" target="IrBCVyRPKa5Xm-K4wgsj-13">
          <mxGeometry width="50" height="50" relative="1" as="geometry">
            <mxPoint x="520" y="120" as="sourcePoint" />
            <mxPoint x="750" y="120" as="targetPoint" />
          </mxGeometry>
        </mxCell>
        <mxCell id="IrBCVyRPKa5Xm-K4wgsj-15" value="" style="endArrow=classic;html=1;rounded=0;exitX=0;exitY=0.5;exitDx=0;exitDy=0;" edge="1" parent="1" source="IrBCVyRPKa5Xm-K4wgsj-13">
          <mxGeometry width="50" height="50" relative="1" as="geometry">
            <mxPoint x="700" y="170" as="sourcePoint" />
            <mxPoint x="440" y="100" as="targetPoint" />
          </mxGeometry>
        </mxCell>
        <mxCell id="IrBCVyRPKa5Xm-K4wgsj-16" value="&lt;font style=&quot;font-size: 20px;&quot;&gt;QC&lt;/font&gt;" style="text;strokeColor=none;fillColor=none;html=1;fontSize=24;fontStyle=1;verticalAlign=middle;align=center;" vertex="1" parent="1">
          <mxGeometry x="480" y="80" width="40" height="40" as="geometry" />
        </mxCell>
        <mxCell id="IrBCVyRPKa5Xm-K4wgsj-17" value="&lt;font style=&quot;font-size: 18px;&quot;&gt;cmd&lt;/font&gt;" style="text;html=1;strokeColor=none;fillColor=none;align=center;verticalAlign=middle;whiteSpace=wrap;rounded=0;" vertex="1" parent="1">
          <mxGeometry x="530" y="85" width="60" height="30" as="geometry" />
        </mxCell>
        <mxCell id="IrBCVyRPKa5Xm-K4wgsj-23" value="" style="endArrow=classic;html=1;exitX=0.5;exitY=0;exitDx=0;exitDy=0;entryX=0.597;entryY=-0.008;entryDx=0;entryDy=0;entryPerimeter=0;strokeColor=#B20000;fillColor=#e51400;curved=1;" edge="1" parent="1" source="IrBCVyRPKa5Xm-K4wgsj-11" target="IrBCVyRPKa5Xm-K4wgsj-1">
          <mxGeometry width="50" height="50" relative="1" as="geometry">
            <mxPoint x="340" y="70" as="sourcePoint" />
            <mxPoint x="390" y="20" as="targetPoint" />
            <Array as="points">
              <mxPoint x="340" y="50" />
              <mxPoint x="240" y="50" />
            </Array>
          </mxGeometry>
        </mxCell>
        <mxCell id="IrBCVyRPKa5Xm-K4wgsj-24" value="" style="endArrow=classic;html=1;exitX=0.5;exitY=0;exitDx=0;exitDy=0;entryX=0.597;entryY=-0.008;entryDx=0;entryDy=0;entryPerimeter=0;strokeColor=#B20000;fillColor=#e51400;curved=1;" edge="1" parent="1">
          <mxGeometry width="50" height="50" relative="1" as="geometry">
            <mxPoint x="500" y="80" as="sourcePoint" />
            <mxPoint x="400" y="80" as="targetPoint" />
            <Array as="points">
              <mxPoint x="500" y="50" />
              <mxPoint x="400" y="50" />
            </Array>
          </mxGeometry>
        </mxCell>
        <mxCell id="IrBCVyRPKa5Xm-K4wgsj-25" value="" style="endArrow=classic;html=1;rounded=0;exitX=0;exitY=0.5;exitDx=0;exitDy=0;" edge="1" parent="1">
          <mxGeometry width="50" height="50" relative="1" as="geometry">
            <mxPoint x="620" y="99.83" as="sourcePoint" />
            <mxPoint x="600" y="99.83" as="targetPoint" />
          </mxGeometry>
        </mxCell>
        <mxCell id="IrBCVyRPKa5Xm-K4wgsj-26" value="" style="shape=waypoint;sketch=0;fillStyle=solid;size=6;pointerEvents=1;points=[];fillColor=none;resizable=0;rotatable=0;perimeter=centerPerimeter;snapToPoint=1;strokeWidth=0.1;" vertex="1" parent="1">
          <mxGeometry x="140" y="90" width="20" height="20" as="geometry" />
        </mxCell>
        <mxCell id="IrBCVyRPKa5Xm-K4wgsj-30" value="" style="shape=waypoint;sketch=0;fillStyle=solid;size=6;pointerEvents=1;points=[];fillColor=none;resizable=0;rotatable=0;perimeter=centerPerimeter;snapToPoint=1;strokeWidth=0.1;" vertex="1" parent="1">
          <mxGeometry x="130" y="90" width="20" height="20" as="geometry" />
        </mxCell>
        <mxCell id="IrBCVyRPKa5Xm-K4wgsj-31" value="" style="shape=waypoint;sketch=0;fillStyle=solid;size=6;pointerEvents=1;points=[];fillColor=none;resizable=0;rotatable=0;perimeter=centerPerimeter;snapToPoint=1;strokeWidth=0.1;" vertex="1" parent="1">
          <mxGeometry x="120" y="90" width="20" height="20" as="geometry" />
        </mxCell>
        <mxCell id="IrBCVyRPKa5Xm-K4wgsj-34" value="" style="shape=waypoint;sketch=0;fillStyle=solid;size=6;pointerEvents=1;points=[];fillColor=none;resizable=0;rotatable=0;perimeter=centerPerimeter;snapToPoint=1;strokeWidth=0.1;" vertex="1" parent="1">
          <mxGeometry x="630" y="90" width="20" height="20" as="geometry" />
        </mxCell>
        <mxCell id="IrBCVyRPKa5Xm-K4wgsj-35" value="" style="shape=waypoint;sketch=0;fillStyle=solid;size=6;pointerEvents=1;points=[];fillColor=none;resizable=0;rotatable=0;perimeter=centerPerimeter;snapToPoint=1;strokeWidth=0.1;" vertex="1" parent="1">
          <mxGeometry x="620" y="90" width="20" height="20" as="geometry" />
        </mxCell>
        <mxCell id="IrBCVyRPKa5Xm-K4wgsj-36" value="" style="shape=waypoint;sketch=0;fillStyle=solid;size=6;pointerEvents=1;points=[];fillColor=none;resizable=0;rotatable=0;perimeter=centerPerimeter;snapToPoint=1;strokeWidth=0.1;" vertex="1" parent="1">
          <mxGeometry x="640" y="90" width="20" height="20" as="geometry" />
        </mxCell>
        <mxCell id="IrBCVyRPKa5Xm-K4wgsj-40" value="" style="endArrow=none;html=1;curved=1;" edge="1" parent="1">
          <mxGeometry width="50" height="50" relative="1" as="geometry">
            <mxPoint x="320" y="130" as="sourcePoint" />
            <mxPoint x="600" y="130" as="targetPoint" />
            <Array as="points">
              <mxPoint x="390" y="160" />
              <mxPoint x="430" y="130" />
              <mxPoint x="460" y="140" />
              <mxPoint x="500" y="130" />
              <mxPoint x="530" y="160" />
            </Array>
          </mxGeometry>
        </mxCell>
        <mxCell id="IrBCVyRPKa5Xm-K4wgsj-41" value="&lt;font style=&quot;font-size: 18px;&quot;&gt;n = 2&lt;/font&gt;" style="text;html=1;strokeColor=none;fillColor=none;align=center;verticalAlign=middle;whiteSpace=wrap;rounded=0;fontColor=#FF0000;" vertex="1" parent="1">
          <mxGeometry x="430" y="130" width="60" height="30" as="geometry" />
        </mxCell>
      </root>
    </mxGraphModel>
  </diagram>
</mxfile>
